HIERARCHY
ROOT hip
{
	OFFSET 0.000000 0.000000 0.000000
	CHANNELS 6 Xposition Yposition Zposition Xrotation Zrotation Yrotation 
	JOINT abdomen
	{
		OFFSET 0.000000 3.422050 0.000000
		CHANNELS 3 Xrotation Zrotation Yrotation 
		JOINT chest
		{
			OFFSET 0.000000 8.486693 -0.684411
			CHANNELS 3 Xrotation Zrotation Yrotation 
			JOINT neck
			{
				OFFSET 0.000000 10.266162 -0.273764
				CHANNELS 3 Xrotation Zrotation Yrotation 
				JOINT head
				{
					OFFSET 0.000000 3.148285 0.000000
					CHANNELS 3 Xrotation Zrotation Yrotation 
					End Site
					{
						OFFSET 0.000000 3.148289 0.000000
					}
				}
			}
			JOINT lCollar
			{
				OFFSET 3.422053 6.707223 -0.821293
				CHANNELS 3 Yrotation Zrotation Xrotation 
				JOINT lShldr
				{
					OFFSET 3.285171 0.000000 0.000000
					CHANNELS 3 Zrotation Yrotation Xrotation 
					JOINT lForeArm
					{
						OFFSET 10.129278 0.000000 0.000000
						CHANNELS 3 Yrotation Zrotation Xrotation 
						JOINT lHand
						{
							OFFSET 8.486692 0.000000 0.000000
							CHANNELS 3 Zrotation Yrotation Xrotation 
							End Site
							{
								OFFSET 4.106464 0.000000 0.000000
							}
						}
					}
				}
			}
			JOINT rCollar
			{
				OFFSET -3.558935 6.707223 -0.821293
				CHANNELS 3 Yrotation Zrotation Xrotation 
				JOINT rShldr
				{
					OFFSET -3.148289 0.000000 0.000000
					CHANNELS 3 Zrotation Yrotation Xrotation 
					JOINT rForeArm
					{
						OFFSET -10.266159 0.000000 0.000000
						CHANNELS 3 Yrotation Zrotation Xrotation 
						JOINT rHand
						{
							OFFSET -8.349810 0.000000 0.000000
							CHANNELS 3 Zrotation Yrotation Xrotation 
							End Site
							{
								OFFSET -4.106464 0.000000 0.000000
							}
						}
					}
				}
			}
		}
	}
	JOINT lThigh
	{
		OFFSET 5.338403 -1.642589 1.368821
		CHANNELS 3 Xrotation Zrotation Yrotation 
		JOINT lShin
		{
			OFFSET -2.053232 -20.121670 0.000000
			CHANNELS 3 Xrotation Zrotation Yrotation 
			JOINT lFoot
			{
				OFFSET 0.000000 -19.300380 -1.231939
				CHANNELS 3 Xrotation Yrotation Zrotation 
				End Site
				{
					OFFSET 0.000000 -2.463878 4.653993
				}
			}
		}
	}
	JOINT rThigh
	{
		OFFSET -5.338403 -1.642589 1.368821
		CHANNELS 3 Xrotation Zrotation Yrotation 
		JOINT rShin
		{
			OFFSET 2.053232 -20.121670 0.000000
			CHANNELS 3 Xrotation Zrotation Yrotation 
			JOINT rFoot
			{
				OFFSET 0.000000 -19.300380 -1.231939
				CHANNELS 3 Xrotation Yrotation Zrotation 
				End Site
				{
					OFFSET 0.000000 -2.463878 4.653993
				}
			}
		}
	}
}
MOTION
Frames: 13
Frame Time: 0.050000
0.000000 43.528500 0.000000 0.000000 0.000000 0.000000 0.000000 0.000000 0.000000 0.000000 0.000000 0.000000 0.000000 0.000000 0.000000 0.000000 0.000000 0.000000 0.000000 0.000000 0.000000 0.000000 0.000000 0.000000 0.000000 0.000000 0.000000 0.000000 0.000000 0.000000 0.000000 0.000000 0.000000 0.000000 0.000000 0.000000 0.000000 0.000000 0.000000 0.000000 0.000000 0.000000 0.000000 0.000000 0.000000 0.000000 0.000000 0.000000 0.000000 0.000000 0.000000 0.000000 0.000000 0.000000 0.000000 0.000000 0.000000 0.000000 0.000000 0.000000 
-26.003361 49.995544 0.000000 -173.005142 0.000000 180.000000 -5.287482 -0.123026 -0.276140 -10.932709 -0.537283 -0.860249 26.996685 0.000000 0.000000 -38.001648 0.000000 0.000000 9.996757 -15.001191 9.996759 -1.009593 -75.014900 8.007469 -54.002293 -5.000620 -20.002666 -17.920616 -13.564386 -49.151627 -9.999737 15.997792 9.996634 -10.006058 59.999348 5.992510 63.214931 3.150515 -19.918089 21.232155 18.936520 -46.603195 -60.775517 17.372614 -2.494497 116.827164 -47.461674 -16.246422 29.066042 -23.114290 23.142374 -64.785271 -30.924812 -4.128211 118.477638 44.624275 23.421568 31.952574 23.196804 -25.141739 
-26.003361 49.995544 0.000000 -173.003830 0.000000 180.000000 -5.287483 -0.123026 -0.276140 -9.781462 -0.537349 -0.860277 27.534922 0.000000 0.000000 -41.103130 0.000000 0.000000 12.015299 -14.920895 9.674909 -0.520868 -75.419502 6.978145 -55.829815 -5.076207 -20.084940 -17.521477 -13.463090 -49.272930 -11.915968 15.868804 9.361800 -7.879477 62.123966 7.340129 64.100006 3.126878 -19.966494 20.820616 18.685421 -46.816593 -60.232582 17.798811 -1.907436 116.827179 -47.461678 -16.246426 29.349409 -23.238853 24.006338 -64.542595 -31.071716 -4.379584 118.477654 44.624275 23.421570 32.099670 23.228407 -25.470985 
-26.003361 49.995544 0.000000 -173.003830 0.000000 180.000000 -5.287482 -0.123026 -0.276140 -8.628930 -0.537415 -0.860305 28.073282 0.000000 0.000000 -44.230515 0.000000 0.000000 14.041343 -14.851354 9.349186 0.011282 -75.821922 5.905660 -57.662807 -5.149343 -20.169840 -17.122679 -13.360962 -49.393467 -13.840214 15.759900 8.720615 -5.475624 64.223091 8.971433 64.985649 3.102483 -20.014570 20.410601 18.432838 -47.027821 -59.683491 18.219877 -1.314424 116.827164 -47.461674 -16.246422 29.635212 -23.359533 24.872231 -64.298782 -31.217714 -4.632087 118.477638 44.624275 23.421568 32.246998 23.259230 -25.800409 
-26.003361 49.995544 0.000000 -173.003830 0.000000 180.000000 -5.287482 -0.123026 -0.276140 -7.475348 -0.537481 -0.860336 28.611750 0.000000 0.000000 -47.379410 0.000000 0.000000 16.073563 -14.792821 9.020185 0.590344 -76.221909 4.786557 -59.500355 -5.219895 -20.257261 -16.724218 -13.258006 -49.513229 -15.771087 15.671521 8.074156 -2.727053 66.287079 10.953854 65.871712 3.077332 -20.062277 20.002106 18.178793 -47.236858 -59.128250 18.635674 -0.715478 116.827164 -47.461674 -16.246422 29.923359 -23.476286 25.739943 -64.053818 -31.362791 -4.885717 118.477638 44.624275 23.421568 32.394562 23.289278 -26.130020 
-26.003361 49.995544 0.000000 -173.003830 0.000000 180.000000 -5.287482 -0.123026 -0.276140 -6.320942 -0.537546 -0.860368 29.150309 0.000000 0.000000 -50.545254 0.000000 0.000000 18.110613 -14.745501 8.688507 1.220132 -76.619072 3.617034 -61.341534 -5.287740 -20.347086 -16.326118 -13.154235 -49.632214 -17.707148 15.604012 7.423528 0.454131 68.303726 13.375278 66.758102 3.051440 -20.109610 19.595129 17.923311 -47.443714 -58.566891 19.046055 -0.110617 116.827164 -47.461674 -16.246422 30.213755 -23.589056 26.609339 -63.807697 -31.506947 -5.140479 118.477654 44.624275 23.421566 32.542347 23.318544 -26.459799 
-26.003361 49.995544 0.000000 -173.003830 0.000000 180.000000 -5.287482 -0.123026 -0.276140 -5.165952 -0.537610 -0.860401 29.688917 0.000000 0.000000 -53.723286 0.000000 0.000000 20.151104 -14.709552 8.354772 1.904829 -77.013130 2.392940 -63.185379 -5.352759 -20.439182 -15.928388 -13.049659 -49.750423 -19.646946 15.557641 6.769871 2.363307 70.412613 14.509436 67.644714 3.024808 -20.156549 19.189672 17.666420 -47.648376 -57.999428 19.450865 0.500130 116.827164 -47.461670 -16.246418 30.506302 -23.697796 27.480299 -63.560463 -31.650171 -5.396362 118.477638 44.624271 23.421562 32.690353 23.347029 -26.789745 
-26.003361 49.995544 0.000000 -173.003830 0.000000 180.000000 -5.287482 -0.123026 -0.276140 -4.010608 -0.537674 -0.860435 30.227562 0.000000 0.000000 -56.908710 0.000000 0.000000 22.193657 -14.685102 8.019617 2.649018 -77.403786 1.109718 -65.030952 -5.414839 -20.533413 -15.531026 -12.944279 -49.867828 -21.588991 15.532595 6.114341 4.633704 72.507248 16.009077 68.531441 2.997452 -20.203077 18.785734 17.408142 -47.850845 -57.425922 19.849979 1.116729 116.827164 -47.461674 -16.246422 30.800901 -23.802460 28.352694 -63.312084 -31.792454 -5.653372 118.477638 44.624271 23.421568 32.838577 23.374737 -27.119852 
-26.003361 49.995544 0.000000 -173.003830 0.000000 180.000000 -5.287482 -0.123026 -0.276140 -2.855147 -0.537737 -0.860471 30.766226 0.000000 0.000000 -60.096603 0.000000 0.000000 24.236872 -14.672220 7.683685 3.457715 -77.790489 -0.237635 -66.877289 -5.473881 -20.629641 -15.134049 -12.838105 -49.984421 -23.531797 15.528970 5.458109 7.407074 74.579041 18.016003 69.418182 2.969379 -20.249178 18.383320 17.148516 -48.051132 -56.846378 20.243244 1.739144 116.827164 -47.461674 -16.246422 31.097462 -23.903009 29.226404 -63.062576 -31.933788 -5.911503 118.477638 44.624275 23.421568 32.987003 23.401657 -27.450108 
-26.003361 49.995544 0.000000 -173.003830 0.000000 180.000000 -5.287483 -0.123026 -0.276140 -1.699804 -0.537799 -0.860508 31.304878 0.000000 0.000000 -63.282017 0.000000 0.000000 26.279348 -14.670933 7.347623 4.336418 -78.172913 -1.654585 -68.723412 -5.529789 -20.727709 -14.737475 -12.731154 -50.100235 -25.473864 15.546773 4.802348 10.904907 76.615219 20.751720 70.304817 2.940595 -20.294834 17.982414 16.887552 -48.249218 -56.260849 20.630526 2.367327 116.827164 -47.461674 -16.246422 31.395884 -23.999405 30.101303 -62.811916 -32.074154 -6.170755 118.477654 44.624275 23.421566 33.135616 23.427790 -27.780493 
-26.003361 49.995544 0.000000 -173.003830 0.000000 180.000000 -5.287483 -0.123026 -0.276140 -0.544813 -0.537860 -0.860546 31.843487 0.000000 0.000000 -66.460068 0.000000 0.000000 28.319672 -14.681215 7.012074 5.291126 -78.550499 -3.147110 -70.568390 -5.582486 -20.827473 -14.341295 -12.623422 -50.215210 -27.413692 15.585917 4.148228 12.289639 78.703766 21.364231 71.191254 2.911118 -20.340033 17.583029 16.625286 -48.445110 -55.669415 21.011686 3.001231 116.827164 -47.461674 -16.246422 31.696051 -24.091608 30.977243 -62.560162 -32.213566 -6.431122 118.477654 44.624275 23.421566 33.284424 23.453136 -28.111015 
-26.003361 49.995544 0.000000 -173.003830 0.000000 180.000000 -5.287482 -0.123026 -0.276140 0.609591 -0.537921 -0.860585 32.382038 0.000000 0.000000 -69.625893 0.000000 0.000000 30.356462 -14.702995 6.677680 6.328387 -78.922836 -4.721732 -72.411224 -5.631896 -20.928764 -13.945537 -12.514927 -50.329372 -29.349804 15.646237 3.496908 14.125278 80.789459 22.429842 72.077362 2.880953 -20.384747 17.185158 16.361750 -48.638821 -55.072121 21.386591 3.640794 116.827164 -47.461674 -16.246422 31.997858 -24.179583 31.854101 -62.307255 -32.351986 -6.692604 118.477638 44.624275 23.421568 33.433411 23.477695 -28.441658 
-26.003361 49.995544 0.000000 -173.003830 0.000000 180.000000 -5.287482 -0.123026 -0.276140 1.763175 -0.537981 -0.860626 32.920506 0.000000 0.000000 -72.774788 0.000000 0.000000 32.388329 -14.736162 6.345072 7.455283 -79.289055 -6.385517 -74.250984 -5.677959 -21.031420 -13.550197 -12.405676 -50.442715 -31.280741 15.727475 2.849529 16.804325 82.866196 24.341099 72.963081 2.850112 -20.428974 16.788792 16.096956 -48.830330 -54.469002 21.755098 4.285957 116.827164 -47.461674 -16.246422 32.301212 -24.263298 32.731739 -62.053253 -32.489433 -6.955193 118.477638 44.624275 23.421568 33.582565 23.501463 -28.772411 
